<!-- 
  Instructions:
  1. Create a new file named 'logo-guide.svg' in your /public/images/ folder.
  2. Copy and paste the code below into that file.
-->

<!-- ====================================================================== -->
<!-- 2. For "logo-guide.svg" (Replaces Lonely Planet) -->
<!-- A modern, stylized compass for "Expert Guide" -->
<!-- ====================================================================== -->
<svg xmlns="http://www.w3.org/2000/svg" height="800" width="1200" version="1.0" viewBox="-64.42005 -47.97975 558.3071 287.8785"><g fill-rule="evenodd"><path d="M123.035 77.998c12.644 0 20.335 2.224 24.205 6.973 2.109 2.584 3.173 6.02 3.198 10.372.012 2.418-.295 5.117-.914 8.12l-8.667 41.864c-1.2 5.788-1.924 10.22-1.904 13.893a20.7 20.7 0 00.282 3.262h-23.713c-.007-.257-.044-.506-.044-.77-.01-1.736.124-3.57.275-5.467l.249-3.434h-1.313l-.519.818c-4.254 6.84-13.918 11.073-22.198 11.073-6.863 0-11.78-1.756-14.612-5.237-3.127-3.833-3.872-9.838-2.221-17.839 3.234-15.628 10.34-22.242 28.162-26.242.01 0 11.834-2.696 11.834-2.696 7.02-1.55 10.404-4.646 11.658-10.699.684-3.322.314-5.889-1.106-7.64-1.317-1.61-3.431-2.425-6.278-2.425-6.337 0-9.71 3.273-11.797 11.42h-21.16c5.688-21.978 25.222-25.346 36.583-25.346zm-.263 43.1s-.477.436-1.395.797c-1.498.577-4.823 1.12-6.878 1.636-1.593.397-3.39.856-5.33 1.671-5.169 2.19-7.833 5.773-9.204 12.362-.799 3.855-.331 7.008 1.369 9.095 1.268 1.564 3.146 2.384 5.41 2.384 9.243 0 12.141-8.84 13.517-15.501l2.577-12.445h-.066l-2.51 12.445 2.51-12.445zm84.998 33.995c-5.004-6.142-5.985-15.803-2.532-33.013 7.535-37.467 21.777-44.082 34.168-44.082 5.89 0 14.764 2.182 15.806 12.52l.165 1.608h1.72s2.013-9.725 2.454-11.894h23.036c-.838 4.035-17.108 82.25-17.108 82.25-4.062 19.649-16.678 29.437-39.823 29.437-21.443 0-24.624-12.644-25.106-16.559-.183-1.486.316-5.873.316-5.873h22.416v.018c.012 1.997.162 4.945.837 5.773.928 1.144 1.699 2.489 5.255 2.489 4.72 0 9.24-1.362 11.444-12.018l3.815-18.457h-1.84l-.509.868c-4.59 7.948-13.14 11.965-22.155 11.965-5.551 0-9.599-1.635-12.358-5.032zm22.873-34.833c-2.521 12.194-2.411 16.883.055 19.91 1.225 1.511 3.057 2.235 5.589 2.235 7.002 0 10.424-4.252 13.98-21.415 2.541-12.292 2.805-20.1.374-23.095-1.194-1.454-2.943-2.177-5.354-2.177-7.235 0-11.098 7.379-14.644 24.542zm88.884-40.028c-.82 3.97-16.464 79.622-17.015 82.25h-24.938c.826-3.972 16.487-79.623 17.033-82.25h24.92zm45.799-27.44a571848.93 571848.93 0 01-22.696 109.69h-24.94c.832-4.047 22.144-107.028 22.703-109.69h24.933zm39.986 0c-.846 4.036-22.153 107.017-22.716 109.69h-24.928c.842-4.047 22.152-107.028 22.703-109.69h24.94zM211.321 77.998c-8.172 0-17.897 5.718-22.646 14.912l-.492.95h-1.826s2.196-10.604 2.815-13.628h-2.136v-.01h-23.72c.168 1.027.275 2.102.282 3.275.015 2.638-.363 5.687-1.02 9.347-4.622 22.336-13.796 66.62-14.415 69.638h24.95c1.593-7.726 9.376-45.387 9.376-45.387 2.348-11.33 8.992-16.604 20.888-16.604 2.053 0 3.858.115 5.631.375.555-2.671 4.04-19.5 4.732-22.868h-2.419zM4.906 158.2c-6.23-7.646-6.505-21.703-.948-48.534 8.873-42.895 21.704-57.37 50.841-57.37 11.64 0 19.814 2.776 24.278 8.253 2.888 3.539 4.35 8.37 4.383 14.43.02 3.3-.384 6.972-1.215 10.985l-1.19 5.736H56.5s1.82-11.707 1.805-14.289c-.017-2.905-.13-4.478-1.24-5.944-1.152-1.518-2.864-2.733-5.548-2.733-10.851 0-14.417 10.336-20.598 40.204-4.798 23.185-6.514 33.826-2.808 38.372 1.406 1.716 3.522 2.551 6.49 2.551 8.546 0 11.914-7.327 16.208-27.709h24.733c-.487 2.36-1.298 6.26-1.298 6.26-5.2 25.135-19.933 37.89-43.795 37.89-12.922 0-21.039-2.583-25.544-8.102zm405.7-105.466h7.484l-.25 1.19h-3.082l-2.214 10.724h-1.322l2.217-10.723h-3.075l.242-1.191zm16.539 0h2.322l-2.47 11.914h-1.316l2.033-9.817c.102-.51.234-1.001.309-1.508h-.03c-.287.7-.489 1.143-.698 1.603l-4.507 9.722h-1.57l-.457-9.866a28.87 28.87 0 01-.043-1.459h-.032c-.105.507-.182 1.03-.29 1.542l-2.024 9.783h-1.317l2.464-11.914h2.337l.409 9.296c.024.506-.013.998-.113 1.763h.035c.207-.604.407-1.193.669-1.78l4.289-9.28z" fill="#161413"/><path d="M321.662 70.527c1.96-45.206-52.55-79.144-103.424-68.59-50.848 10.548-75.426 54.82-81.85 68.497h8.317c11.132-18.723 22.403-33.257 41.613-38.671 12.203-3.441 21.791-2.652 45.393 10.516 10.87 6.067 35.471 24.305 61.9 27.948 11.482 1.585 28.051.3 28.051.3z" fill="#00812e"/></g></svg>