<!-- 
  Instructions:
  1. Create a new file named 'logo-award.svg' in your /public/images/ folder.
  2. Copy and paste the code below into that file.
-->

<!-- ====================================================================== -->
<!-- 1. For "logo-award.svg" (Replaces TripAdvisor) -->
<!-- A stylized laurel wreath for "Award Winner" -->
<!-- ====================================================================== -->

<svg xmlns="http://www.w3.org/2000/svg" height="800" width="1200" overflow="visible" viewBox="-4.21995 -8.237 36.5729 49.422"><path d="M6.096 23.229c.022-.421.318-1.595.941-3.337 1.165-3.268 3.64-8.024 8.223-9.51l.007 1.284s-4.43 1.417-7.807 8.392c-.678 1.403-1.142 2.848-1.332 3.18zm6.296-1.102c4.819-1.173 5.847-6.749 5.843-11.297-.002-3.389-.574-6.208-.574-6.208-10.749 4.161-13.169 8.107-13.19 10.8 0 .997.283 1.805.512 2.146L5 17.557c-.079-.278-.194-.828-.194-1.284-.022-2.393 2.039-5.892 11.672-9.622 0 0 .513 2.506.517 5.515.007 3.875-.772 8.571-4.632 9.938z" fill="#00A94F"/><path d="M18.11 3.793c-4.097 1.562-7.215 3.119-9.478 4.703-2.283 1.596-3.717 3.216-4.387 4.954-.161.419-.328 1.007-.358 1.593-.499-.417-.642-.535-.874-.729-.726-.605-1.496-1.3-1.496-2.411 0-1.112.77-1.807 1.496-2.41C4.59 8.178 13.415.825 14.097.256c.216-.182.35-.256.534-.256.183 0 .315.074.532.256.682.569 9.508 7.922 11.086 9.237.725.603 1.494 1.298 1.494 2.41 0 1.111-.77 1.806-1.494 2.411-1.578 1.315-10.404 8.667-11.086 9.234-.217.183-.349.258-.532.258-.184 0-.318-.075-.534-.258-.144-.119-.404-.338-1.133-.944 2.229-.676 3.823-2.349 4.763-4.722.746-1.877 1.123-4.25 1.123-7.051 0-3.48-.584-6.392-.74-7.038" fill="#004B91"/><path d="M4.7 29.248c-.866 0-1.627.551-1.627 1.021 0 .399.46.571.893.571.831 0 1.62-.52 1.62-1.035 0-.323-.361-.557-.886-.557" fill="#00A94F"/><path d="M23.391 31.681l-2.998-6.66h-1.73v7.927h1.199v-6.595h.025l2.97 6.595h1.079l2.973-6.595h.025v6.595h1.199v-7.927h-1.731l-3.006 6.66zm-13.889-6.66h3.163c2.865 0 4.669 1.478 4.669 3.966 0 2.366-1.711 3.961-4.669 3.961H9.502zm1.266 7.037h1.904c2.313 0 3.397-1.301 3.397-3.064 0-1.887-1.174-3.084-3.37-3.084h-1.931zm-6.34-6.082h-.02l-3.077 6.972H0l3.718-7.927h1.448l3.717 7.927H7.459zm14.983-2.84c-.424 0-.811-.332-.811-.814 0-.469.375-.813.813-.813.47 0 .819.371.815.817-.001.452-.355.81-.817.81m.006-1.529c-.406 0-.72.322-.72.715 0 .402.322.716.716.716.403 0 .716-.315.718-.714.001-.393-.304-.717-.714-.717m-.018.255c.117 0 .172 0 .234.021.102.036.153.12.153.207 0 .127-.101.201-.226.221.108.037.143.09.162.201.023.133.03.184.075.266h-.17c-.022-.042-.03-.082-.04-.126-.005-.021-.021-.123-.025-.146-.029-.136-.111-.151-.254-.153h-.074v.426h-.146v-.915h.311zm-.162.382h.17c.063 0 .23.002.23-.145 0-.041-.018-.078-.047-.101-.042-.035-.092-.035-.214-.035h-.14v.281z" fill="#004B91"/></svg>